<?xml version="1.0" encoding="utf-8"?>
<!-- Generator: Adobe Illustrator 15.0.0, SVG Export Plug-In . SVG Version: 6.00 Build 0)  -->
<!DOCTYPE svg PUBLIC "-//W3C//DTD SVG 1.1//EN" "http://www.w3.org/Graphics/SVG/1.1/DTD/svg11.dtd">
<svg version="1.1" id="Warstwa_1" xmlns="http://www.w3.org/2000/svg" xmlns:xlink="http://www.w3.org/1999/xlink" x="0px" y="0px"
	 width="27px" height="31px" viewBox="0 0 27 31" enable-background="new 0 0 27 31" xml:space="preserve">
<path fill="#ffffff" d="M24.749,8.852c-0.044-0.483-0.448-0.854-0.934-0.854h-4.688V6.122c0-3.103-2.524-5.626-5.627-5.626
	c-3.104,0-5.626,2.523-5.626,5.626v1.875H3.185c-0.485,0-0.89,0.371-0.934,0.854l-1.876,20.63c-0.023,0.262,0.064,0.521,0.242,0.717
	c0.178,0.194,0.429,0.306,0.692,0.306H25.69c0.264,0,0.515-0.111,0.692-0.306c0.176-0.195,0.266-0.455,0.242-0.717L24.749,8.852z
	 M9.749,6.122c0-2.068,1.684-3.75,3.751-3.75c2.068,0,3.751,1.682,3.751,3.75v1.875H9.749V6.122z M2.337,28.628L4.041,9.873h3.833
	v2.135c-0.56,0.326-0.938,0.924-0.938,1.616c0,1.035,0.841,1.876,1.876,1.876s1.875-0.841,1.875-1.876
	c0-0.691-0.378-1.29-0.938-1.616V9.873h7.502v2.135c-0.559,0.326-0.938,0.923-0.938,1.616c0,1.035,0.841,1.876,1.875,1.876
	c1.035,0,1.876-0.841,1.876-1.876c0-0.691-0.379-1.29-0.938-1.616V9.873h3.832l1.704,18.755H2.337z"/>
</svg>
