<?xml version="1.0" encoding="utf-8"?>
<!-- Generator: Adobe Illustrator 15.0.0, SVG Export Plug-In . SVG Version: 6.00 Build 0)  -->
<!DOCTYPE svg PUBLIC "-//W3C//DTD SVG 1.1//EN" "http://www.w3.org/Graphics/SVG/1.1/DTD/svg11.dtd">
<svg version="1.1" id="Warstwa_1" xmlns="http://www.w3.org/2000/svg" xmlns:xlink="http://www.w3.org/1999/xlink" x="0px" y="0px"
	 width="11px" height="11px" viewBox="0 0 11 11" enable-background="new 0 0 11 11" xml:space="preserve">
<path fill="#ffffff" d="M10.48,8.248c-0.029-0.084-0.209-0.211-0.541-0.377C9.85,7.82,9.723,7.748,9.557,7.658S9.24,7.486,9.105,7.41
	S8.844,7.262,8.725,7.189C8.706,7.176,8.646,7.135,8.547,7.066C8.448,6.998,8.363,6.947,8.295,6.912
	C8.227,6.879,8.159,6.863,8.093,6.863c-0.095,0-0.213,0.066-0.354,0.203C7.596,7.201,7.465,7.348,7.348,7.506
	C7.229,7.664,7.104,7.813,6.971,7.947S6.729,8.148,6.645,8.148c-0.043,0-0.097-0.012-0.16-0.035C6.42,8.09,6.371,8.07,6.338,8.053
	c-0.033-0.016-0.09-0.049-0.17-0.1C6.087,7.904,6.043,7.877,6.033,7.871C5.384,7.512,4.828,7.1,4.363,6.637
	c-0.464-0.465-0.876-1.022-1.236-1.67c-0.004-0.01-0.032-0.055-0.082-0.135c-0.05-0.081-0.083-0.138-0.1-0.171
	s-0.037-0.082-0.06-0.146C2.862,4.452,2.85,4.398,2.85,4.355c0-0.085,0.067-0.194,0.203-0.326c0.135-0.133,0.282-0.259,0.44-0.377
	s0.305-0.248,0.44-0.391C4.068,3.12,4.136,3,4.136,2.906c0-0.065-0.017-0.133-0.05-0.202C4.053,2.635,4.002,2.551,3.934,2.452
	c-0.069-0.1-0.11-0.158-0.125-0.178c-0.071-0.118-0.144-0.245-0.22-0.38C3.513,1.758,3.43,1.609,3.34,1.443
	C3.25,1.277,3.179,1.149,3.127,1.059C2.961,0.728,2.836,0.547,2.75,0.519C2.717,0.505,2.667,0.499,2.602,0.499
	c-0.128,0-0.295,0.023-0.501,0.07C1.895,0.617,1.732,0.666,1.614,0.718C1.377,0.817,1.126,1.106,0.861,1.585
	C0.619,2.03,0.499,2.47,0.499,2.906c0,0.128,0.008,0.253,0.025,0.374C0.54,3.4,0.569,3.536,0.612,3.688
	c0.042,0.151,0.077,0.264,0.103,0.337C0.741,4.098,0.79,4.23,0.861,4.419s0.114,0.306,0.128,0.348
	C1.154,5.232,1.351,5.646,1.578,6.01c0.374,0.607,0.885,1.234,1.531,1.881c0.647,0.646,1.273,1.156,1.879,1.531
	c0.365,0.227,0.779,0.424,1.243,0.588c0.043,0.016,0.159,0.057,0.349,0.129c0.189,0.07,0.32,0.119,0.395,0.146
	c0.072,0.025,0.186,0.061,0.337,0.102c0.151,0.043,0.288,0.072,0.409,0.09c0.12,0.016,0.244,0.025,0.372,0.025
	c0.437,0,0.876-0.121,1.321-0.363c0.479-0.266,0.768-0.516,0.867-0.752c0.052-0.119,0.102-0.281,0.148-0.488
	c0.048-0.205,0.071-0.373,0.071-0.5C10.502,8.332,10.494,8.281,10.48,8.248z"/>
</svg>
