<?xml version="1.0" encoding="utf-8"?>
<!-- Generator: Adobe Illustrator 15.0.0, SVG Export Plug-In . SVG Version: 6.00 Build 0)  -->
<!DOCTYPE svg PUBLIC "-//W3C//DTD SVG 1.1//EN" "http://www.w3.org/Graphics/SVG/1.1/DTD/svg11.dtd">
<svg version="1.1" id="Warstwa_1" xmlns="http://www.w3.org/2000/svg" xmlns:xlink="http://www.w3.org/1999/xlink" x="0px" y="0px"
	 width="95px" height="91px" viewBox="0 0 95 91" enable-background="new 0 0 95 91" xml:space="preserve">
<g>
	<path fill="#F1B869" d="M7.367,42.397c-1.422,0.023-2.506,0.429-3.225,1.208c-0.714,0.772-1.063,1.894-1.041,3.334
		c0.007,0.361,0.032,0.736,0.076,1.127c0.047,0.39,0.111,0.761,0.19,1.111c0.051,0.223,0.249,0.38,0.476,0.38h0.007l7.343-0.118
		c0.246-0.006,0.452-0.191,0.478-0.438c0.074-0.673,0.104-1.356,0.093-2.03c-0.023-1.51-0.402-2.665-1.123-3.433
		C9.907,42.758,8.801,42.39,7.367,42.397 M7.492,44.25c0.885,0,1.532,0.198,1.926,0.588c0.412,0.408,0.628,1.078,0.643,1.992
		c0.004,0.285,0,0.552-0.015,0.797L4.865,47.71c-0.042-0.304-0.065-0.579-0.069-0.824c-0.013-0.895,0.183-1.562,0.585-1.981
		c0.402-0.419,1.079-0.639,2.01-0.652C7.425,44.25,7.458,44.25,7.492,44.25"/>
	<path fill="#F1B869" d="M15.701,28.104L9,24.633c-0.24-0.125-0.535-0.031-0.659,0.209l-0.392,0.755
		c-0.06,0.116-0.072,0.249-0.032,0.374c0.039,0.123,0.126,0.226,0.242,0.285l6.701,3.471c0.071,0.037,0.147,0.055,0.224,0.055
		c0.176,0,0.346-0.097,0.434-0.264l0.392-0.755c0.06-0.115,0.071-0.25,0.032-0.374C15.903,28.267,15.816,28.164,15.701,28.104"/>
	<path fill="#F1B869" d="M28.611,13.555c-0.158-0.219-0.464-0.268-0.683-0.111l-2.983,2.152l-1.065-1.479l2.528-1.822
		c0.219-0.158,0.268-0.463,0.11-0.682l-0.417-0.581c-0.077-0.104-0.191-0.175-0.319-0.195c-0.128-0.021-0.26,0.009-0.365,0.085
		l-2.528,1.823l-0.952-1.32l2.942-2.122c0.104-0.076,0.174-0.191,0.196-0.318c0.021-0.128-0.01-0.26-0.087-0.364l-0.417-0.579
		c-0.075-0.105-0.189-0.175-0.318-0.197c-0.127-0.021-0.259,0.011-0.365,0.087l-4.018,2.899c-0.22,0.157-0.269,0.463-0.112,0.682
		l4.415,6.12c0.077,0.106,0.191,0.175,0.319,0.196c0.026,0.005,0.052,0.007,0.079,0.007c0.101,0,0.202-0.033,0.285-0.092
		l4.062-2.929c0.105-0.076,0.176-0.19,0.197-0.319c0.02-0.128-0.012-0.259-0.087-0.364L28.611,13.555z"/>
	<path fill="#F1B869" d="M46.11,1.012l-6.141,0.653c-0.128,0.014-0.247,0.078-0.329,0.179c-0.081,0.1-0.118,0.229-0.104,0.358
		l0.078,0.731c0.028,0.269,0.274,0.464,0.536,0.434l2.161-0.23l0.67,6.289c0.027,0.251,0.238,0.436,0.485,0.436
		c0.018,0,0.035,0,0.052-0.002l0.846-0.09c0.129-0.013,0.247-0.077,0.328-0.177c0.081-0.102,0.12-0.231,0.106-0.358L44.13,2.944
		l2.162-0.231c0.127-0.013,0.246-0.077,0.328-0.178c0.081-0.101,0.12-0.229,0.105-0.359l-0.078-0.73
		C46.619,1.177,46.382,0.985,46.11,1.012"/>
	<path fill="#F1B869" d="M65.718,4.823l-1.099-0.464c-0.188-0.081-0.401-0.034-0.542,0.111l-5.587,5.833
		c-0.11,0.115-0.158,0.278-0.126,0.437c0.035,0.158,0.142,0.289,0.287,0.351l0.788,0.332c0.186,0.08,0.401,0.034,0.543-0.114
		l1.555-1.639l2.513,1.063l-0.092,2.258c-0.007,0.202,0.113,0.39,0.299,0.469l0.798,0.337c0.061,0.026,0.125,0.04,0.19,0.04
		c0.091,0,0.183-0.025,0.262-0.077c0.138-0.086,0.222-0.233,0.228-0.394l0.284-8.073C66.024,5.086,65.905,4.901,65.718,4.823
		 M62.782,8.359l1.422-1.497l-0.082,2.063L62.782,8.359z"/>
	<path fill="#FFFFFF" d="M81.412,23.95c0.531,0,1.067-0.199,1.603-0.598c0.733-0.544,1.115-1.18,1.135-1.89
		c0.022-0.698-0.292-1.485-0.927-2.342c-0.218-0.292-0.443-0.565-0.67-0.81c-0.227-0.248-0.481-0.5-0.758-0.752L81.72,17.49
		l-6.03,4.491l-0.099,0.071l0.653,0.879l2.014-1.497c0.179,0.285,0.362,0.556,0.552,0.809c0.681,0.914,1.379,1.465,2.073,1.641
		C81.059,23.927,81.235,23.95,81.412,23.95 M79.56,21.698c-0.215-0.29-0.396-0.568-0.546-0.827l2.73-2.033
		c0.273,0.267,0.531,0.563,0.77,0.884c0.435,0.582,0.642,1.104,0.617,1.552c-0.021,0.44-0.28,0.85-0.771,1.214
		c-0.328,0.242-0.646,0.381-0.944,0.411c-0.287,0.035-0.594-0.049-0.891-0.236C80.219,22.469,79.892,22.144,79.56,21.698"/>
	<path fill="#FFFFFF" d="M91.854,40.549c-0.044-0.398-0.104-0.772-0.181-1.112c-0.077-0.341-0.169-0.684-0.279-1.027l-0.03-0.095
		l-7.458,0.812l-0.124,0.013l0.117,1.08l3.129-0.341l0.001,0.018c0.021,0.444,0.047,0.793,0.073,1.04
		c0.006,0.079,0.021,0.184,0.042,0.318l-2.832,2.753l0.138,1.268l2.965-2.907c0.205,0.563,0.5,0.987,0.876,1.264
		c0.423,0.307,0.949,0.423,1.559,0.358c0.808-0.089,1.381-0.423,1.704-0.994C91.87,42.437,91.971,41.614,91.854,40.549
		 M90.711,39.478c0.053,0.189,0.094,0.361,0.128,0.525c0.04,0.196,0.073,0.432,0.104,0.702c0.057,0.501,0.052,0.918-0.013,1.241
		c-0.066,0.308-0.191,0.536-0.383,0.696c-0.195,0.162-0.471,0.265-0.828,0.304c-0.5,0.05-0.873-0.075-1.146-0.394
		c-0.282-0.33-0.467-0.899-0.554-1.694c-0.022-0.231-0.041-0.427-0.052-0.589c-0.007-0.134-0.01-0.3-0.015-0.491L90.711,39.478z"/>
	<polygon fill="#FFFFFF" points="80.018,63.22 80.893,63.608 82.581,59.802 84.918,60.837 83.457,64.132 84.33,64.52 85.795,61.224 
		87.952,62.181 86.283,65.944 87.16,66.333 89.268,61.576 82.147,58.42 	"/>
	<polygon fill="#FFFFFF" points="70.654,74.422 73.953,79.272 69.26,76.636 68.506,77.149 69.263,82.522 65.935,77.631 
		65.071,78.219 69.453,84.662 70.447,83.985 69.568,77.926 74.904,80.952 75.898,80.277 71.519,73.834 	"/>
	<polygon fill="#FFFFFF" points="51.534,82.135 50.442,82.23 51.113,89.991 52.206,89.897 51.545,82.258 	"/>
	<path fill="#FFFFFF" d="M33.646,79.365c-0.638-0.27-1.222-0.392-1.715-0.358c-0.509,0.033-0.965,0.229-1.354,0.575
		c-0.381,0.344-0.716,0.854-0.995,1.515l-1.834,4.337l0.99,0.421l1.872-4.43c0.29-0.684,0.649-1.121,1.068-1.3
		c0.418-0.178,0.952-0.131,1.588,0.136c0.637,0.269,1.041,0.621,1.206,1.047c0.164,0.424,0.1,0.988-0.189,1.671l-1.87,4.429
		l1.005,0.424l1.834-4.341c0.418-0.994,0.499-1.836,0.236-2.504C35.226,80.316,34.606,79.771,33.646,79.365"/>
	<polygon fill="#FFFFFF" points="14.388,72.005 16.982,67.377 17.02,67.311 16.508,66.56 11.134,67.321 16.022,63.989 
		15.434,63.127 8.995,67.51 9.671,68.504 15.73,67.619 12.707,72.96 13.385,73.954 19.823,69.569 19.233,68.705 	"/>
	<path fill="#F1B869" d="M64.563,45.541c-2.662-2.472-7.469-2.4-9.411-2.255l-0.658,0.05v10.841
		c-1.178-0.378-2.629-0.966-4.171-1.594c-0.705-0.286-1.43-0.579-2.159-0.867c1.599-2.262,2.408-5.338,2.408-9.144
		c0-3.635-1.166-6.629-3.463-8.901c-4.733-4.684-12.622-4.615-12.7-4.606l-0.713,0.008l0.001,18.32l0,0.122l1.422-0.02l0.018-16.986
		c1.85,0.106,7.484,0.715,10.977,4.175c2.012,1.995,3.035,4.648,3.035,7.887c0,3.678-0.794,6.575-2.359,8.614
		c-3.179-1.188-5.392-1.735-7.165-1.773c-1.935-0.032-3.566,0.425-4.439,1.277c-0.519,0.51-0.794,1.16-0.794,1.884
		c0,2.325,3.052,3.408,5.11,3.408c1.335,0.03,4.746-0.189,7.504-2.9c0.071-0.068,0.141-0.141,0.21-0.212
		c0.853,0.331,1.703,0.677,2.525,1.009l0.063,0.025c1.742,0.708,3.396,1.38,4.69,1.76v12.575h1.421V55.979
		c1.768,0.214,6.122,0.465,8.635-1.763c1.198-1.063,1.806-2.523,1.806-4.342C66.354,48.103,65.75,46.645,64.563,45.541
		 M56.073,54.567c-0.052-0.007-0.104-0.015-0.159-0.023v-9.878c1.716-0.067,5.64,0.022,7.684,1.916
		c0.899,0.836,1.336,1.913,1.336,3.292c0,1.416-0.436,2.487-1.327,3.279C61.464,55.052,57.298,54.714,56.073,54.567 M36.18,51.706
		c0.561-0.547,1.756-0.876,3.2-0.876c0.071,0,0.143,0,0.214,0.003c1.498,0.032,3.456,0.505,6.151,1.482
		c-2.312,2.086-5.145,2.269-6.28,2.246c-1.273,0-3.652-0.684-3.652-1.987C35.813,52.233,35.933,51.947,36.18,51.706"/>
</g>
</svg>
