<?xml version="1.0" encoding="utf-8"?>
<!-- Generator: Adobe Illustrator 15.0.0, SVG Export Plug-In . SVG Version: 6.00 Build 0)  -->
<!DOCTYPE svg PUBLIC "-//W3C//DTD SVG 1.1//EN" "http://www.w3.org/Graphics/SVG/1.1/DTD/svg11.dtd">
<svg version="1.1" id="Warstwa_1" xmlns="http://www.w3.org/2000/svg" xmlns:xlink="http://www.w3.org/1999/xlink" x="0px" y="0px"
	 width="34px" height="40px" viewBox="0 0 34 40" enable-background="new 0 0 34 40" xml:space="preserve">
<path fill="#F1B869" d="M31.876,16.817c-2.726-2.528-7.644-2.455-9.631-2.307l-0.673,0.051v11.092
	c-1.206-0.388-2.689-0.989-4.268-1.632c-0.721-0.293-1.461-0.592-2.208-0.887c1.634-2.313,2.462-5.46,2.462-9.354
	c0-3.719-1.192-6.783-3.542-9.108C9.173-0.12,1.102-0.05,1.021-0.041l-0.73,0.009l0.001,18.744l0.001,0.125l1.455-0.021L1.766,1.438
	C3.659,1.547,9.424,2.17,12.999,5.71c2.06,2.041,3.105,4.756,3.105,8.07c0,3.763-0.813,6.728-2.415,8.813
	c-3.253-1.216-5.517-1.775-7.331-1.814c-1.98-0.033-3.649,0.436-4.542,1.307c-0.531,0.521-0.812,1.188-0.812,1.928
	c0,2.379,3.122,3.486,5.228,3.486c1.365,0.031,4.856-0.191,7.678-2.967c0.073-0.071,0.144-0.143,0.215-0.217
	c0.873,0.339,1.742,0.691,2.584,1.033l0.064,0.025c1.784,0.725,3.473,1.411,4.799,1.801v12.866h1.453V27.497
	c1.809,0.218,6.266,0.476,8.836-1.804c1.226-1.088,1.848-2.581,1.848-4.442C33.709,19.438,33.092,17.946,31.876,16.817
	 M23.189,26.053c-0.053-0.008-0.106-0.015-0.164-0.023V15.922c1.756-0.068,5.771,0.023,7.861,1.961
	c0.922,0.854,1.368,1.956,1.368,3.368c0,1.448-0.444,2.544-1.356,3.354C28.705,26.549,24.443,26.203,23.189,26.053 M2.834,23.125
	c0.573-0.561,1.796-0.895,3.274-0.895c0.072,0,0.145,0,0.218,0.002c1.533,0.033,3.537,0.516,6.295,1.518
	c-2.366,2.133-5.264,2.32-6.426,2.296c-1.304,0-3.737-0.698-3.737-2.032C2.458,23.664,2.581,23.373,2.834,23.125"/>
</svg>
