<?xml version="1.0" encoding="utf-8"?>
<!-- Generator: Adobe Illustrator 15.0.0, SVG Export Plug-In . SVG Version: 6.00 Build 0)  -->
<!DOCTYPE svg PUBLIC "-//W3C//DTD SVG 1.1//EN" "http://www.w3.org/Graphics/SVG/1.1/DTD/svg11.dtd">
<svg version="1.1" id="Warstwa_1" xmlns="http://www.w3.org/2000/svg" xmlns:xlink="http://www.w3.org/1999/xlink" x="0px" y="0px"
	 width="121px" height="119px" viewBox="0 0 121 119" enable-background="new 0 0 121 119" xml:space="preserve">
<g>
	<path fill="#F1B869" d="M7.792,55.426c-1.868,0.03-3.292,0.563-4.236,1.587C2.62,58.027,2.16,59.499,2.19,61.39
		c0.009,0.474,0.042,0.968,0.1,1.479c0.062,0.512,0.146,0.999,0.25,1.459c0.067,0.293,0.327,0.5,0.625,0.5h0.01l9.642-0.156
		c0.324-0.006,0.593-0.251,0.628-0.575c0.096-0.883,0.136-1.78,0.122-2.664c-0.031-1.982-0.528-3.5-1.475-4.508
		C11.128,55.9,9.677,55.417,7.792,55.426 M7.957,57.86c1.162,0,2.012,0.259,2.529,0.772c0.541,0.535,0.825,1.416,0.844,2.615
		c0.006,0.375,0,0.725-0.02,1.045l-6.804,0.11c-0.054-0.398-0.085-0.762-0.09-1.083c-0.018-1.175,0.24-2.05,0.77-2.601
		c0.528-0.549,1.416-0.838,2.638-0.857C7.87,57.86,7.913,57.86,7.957,57.86"/>
	<path fill="#F1B869" d="M18.737,36.654l-8.8-4.559c-0.316-0.164-0.702-0.041-0.865,0.274l-0.515,0.992
		c-0.078,0.152-0.093,0.327-0.042,0.491c0.052,0.162,0.166,0.296,0.317,0.375l8.8,4.559c0.095,0.049,0.195,0.072,0.295,0.072
		c0.231,0,0.456-0.126,0.569-0.346l0.515-0.992c0.078-0.152,0.094-0.328,0.042-0.491C19.003,36.867,18.889,36.732,18.737,36.654"/>
	<path fill="#F1B869" d="M35.692,17.546c-0.206-0.287-0.608-0.352-0.896-0.145l-3.917,2.825l-1.399-1.941l3.32-2.394
		c0.288-0.208,0.352-0.608,0.145-0.896l-0.547-0.762c-0.1-0.138-0.25-0.23-0.418-0.257c-0.168-0.027-0.34,0.013-0.479,0.112
		l-3.319,2.395l-1.251-1.734l3.864-2.785c0.137-0.101,0.229-0.251,0.257-0.418c0.027-0.168-0.014-0.34-0.114-0.478l-0.548-0.761
		c-0.099-0.138-0.249-0.229-0.417-0.258c-0.168-0.028-0.34,0.014-0.479,0.114l-5.277,3.807c-0.289,0.206-0.353,0.608-0.146,0.896
		l5.797,8.038c0.101,0.139,0.251,0.23,0.419,0.258c0.034,0.007,0.068,0.009,0.103,0.009c0.133,0,0.266-0.042,0.375-0.121
		l5.333-3.847c0.138-0.1,0.231-0.25,0.259-0.418c0.027-0.168-0.015-0.34-0.114-0.478L35.692,17.546z"/>
	<path fill="#F1B869" d="M58.674,1.074l-8.064,0.857c-0.169,0.018-0.325,0.103-0.432,0.235c-0.106,0.132-0.156,0.301-0.138,0.471
		l0.103,0.959c0.037,0.353,0.36,0.611,0.704,0.569l2.838-0.301l0.879,8.258c0.036,0.33,0.313,0.573,0.638,0.573
		c0.022,0,0.045-0.001,0.068-0.004l1.111-0.118c0.169-0.017,0.325-0.101,0.431-0.233c0.106-0.134,0.157-0.304,0.139-0.471
		l-0.878-8.258l2.839-0.303c0.169-0.017,0.323-0.102,0.431-0.235c0.106-0.132,0.157-0.301,0.139-0.471L59.38,1.644
		C59.343,1.292,59.032,1.039,58.674,1.074"/>
	<path fill="#F1B869" d="M84.427,6.08l-1.444-0.61c-0.245-0.106-0.526-0.045-0.712,0.146l-7.337,7.661
		c-0.146,0.151-0.208,0.365-0.166,0.573c0.046,0.207,0.186,0.378,0.379,0.461l1.032,0.436c0.244,0.104,0.529,0.044,0.715-0.149
		l2.041-2.153l3.302,1.396l-0.12,2.965c-0.011,0.266,0.146,0.512,0.391,0.616l1.048,0.443c0.08,0.034,0.165,0.052,0.251,0.052
		c0.119,0,0.24-0.034,0.344-0.102c0.18-0.113,0.29-0.306,0.298-0.519l0.374-10.602C84.828,6.425,84.672,6.182,84.427,6.08
		 M80.571,10.723l1.866-1.966l-0.107,2.709L80.571,10.723z"/>
	<path fill="#FFFFFF" d="M105.037,31.199c0.698,0,1.403-0.262,2.107-0.786c0.96-0.715,1.462-1.55,1.488-2.482
		c0.029-0.917-0.383-1.951-1.218-3.076c-0.287-0.383-0.582-0.741-0.879-1.063c-0.298-0.326-0.633-0.658-0.997-0.988l-0.098-0.088
		l-7.919,5.897l-0.131,0.095l0.859,1.154l2.644-1.966c0.234,0.374,0.477,0.73,0.725,1.063c0.894,1.2,1.81,1.923,2.724,2.154
		C104.572,31.169,104.806,31.199,105.037,31.199 M102.604,28.241c-0.282-0.379-0.521-0.746-0.717-1.085l3.586-2.67
		c0.358,0.35,0.696,0.74,1.01,1.161c0.571,0.764,0.844,1.449,0.812,2.038c-0.027,0.58-0.369,1.116-1.013,1.595
		c-0.43,0.318-0.848,0.5-1.24,0.54c-0.376,0.045-0.778-0.064-1.169-0.311C103.469,29.254,103.041,28.828,102.604,28.241"/>
	<path fill="#FFFFFF" d="M118.75,52.998c-0.058-0.521-0.137-1.013-0.237-1.46c-0.101-0.446-0.222-0.899-0.367-1.349l-0.039-0.125
		l-9.797,1.065l-0.161,0.017l0.154,1.418l4.109-0.447l0.001,0.023c0.028,0.583,0.061,1.042,0.097,1.365
		c0.009,0.103,0.026,0.241,0.056,0.417l-3.72,3.616l0.181,1.665l3.894-3.818c0.269,0.739,0.657,1.296,1.15,1.659
		c0.555,0.403,1.246,0.556,2.046,0.47c1.061-0.117,1.813-0.555,2.239-1.306C118.771,55.478,118.903,54.396,118.75,52.998
		 M117.25,51.591c0.069,0.249,0.124,0.475,0.167,0.691c0.053,0.257,0.098,0.566,0.137,0.921c0.074,0.659,0.066,1.208-0.019,1.63
		c-0.086,0.403-0.25,0.704-0.502,0.915c-0.255,0.213-0.618,0.348-1.087,0.398c-0.656,0.066-1.146-0.098-1.505-0.517
		c-0.369-0.434-0.611-1.182-0.725-2.226c-0.032-0.303-0.055-0.561-0.069-0.773c-0.01-0.178-0.014-0.394-0.019-0.646L117.25,51.591z"
		/>
	<polygon fill="#FFFFFF" points="103.206,82.771 104.354,83.281 106.572,78.281 109.642,79.642 107.724,83.969 108.871,84.478 
		110.792,80.15 113.627,81.407 111.436,86.348 112.587,86.858 115.354,80.613 106.002,76.467 	"/>
	<polygon fill="#FFFFFF" points="90.909,97.482 95.241,103.852 89.077,100.39 88.088,101.063 89.082,108.12 84.712,101.697 
		83.577,102.468 89.332,110.93 90.639,110.042 89.481,102.085 96.492,106.06 97.798,105.172 92.045,96.712 	"/>
	<polygon fill="#FFFFFF" points="65.799,107.611 64.364,107.736 65.244,117.93 66.68,117.807 65.813,107.772 	"/>
	<path fill="#FFFFFF" d="M42.305,103.974c-0.838-0.354-1.604-0.514-2.252-0.468c-0.668,0.042-1.268,0.298-1.778,0.755
		c-0.5,0.45-0.941,1.119-1.307,1.986l-2.408,5.698l1.3,0.552l2.458-5.817c0.38-0.898,0.853-1.473,1.403-1.706
		c0.55-0.234,1.251-0.174,2.085,0.179c0.836,0.351,1.367,0.813,1.583,1.371c0.215,0.56,0.131,1.299-0.248,2.196l-2.456,5.815
		l1.32,0.557l2.408-5.698c0.55-1.307,0.656-2.413,0.31-3.291C44.38,105.224,43.566,104.508,42.305,103.974"/>
	<polygon fill="#FFFFFF" points="17.014,94.309 20.421,88.23 20.47,88.144 19.798,87.156 12.739,88.155 19.16,83.781 18.387,82.647 
		9.931,88.404 10.819,89.711 18.776,88.549 14.806,95.563 15.696,96.868 24.151,91.108 23.377,89.975 	"/>
	<path fill="#F1B869" d="M82.908,59.554c-3.497-3.245-9.81-3.151-12.36-2.961l-0.864,0.065v14.237
		c-1.547-0.497-3.451-1.27-5.478-2.095c-0.926-0.375-1.876-0.76-2.835-1.138c2.099-2.97,3.161-7.01,3.161-12.007
		c0-4.773-1.53-8.707-4.546-11.69c-6.217-6.151-16.576-6.061-16.68-6.05l-0.937,0.012l0.001,24.058l0.001,0.16l1.868-0.026
		l0.023-22.305c2.43,0.14,9.829,0.939,14.417,5.483c2.643,2.62,3.985,6.104,3.985,10.358c0,4.829-1.043,8.635-3.099,11.313
		c-4.175-1.561-7.082-2.279-9.41-2.329c-2.542-0.043-4.684,0.559-5.83,1.677c-0.682,0.67-1.042,1.524-1.042,2.475
		c0,3.054,4.007,4.476,6.71,4.476c1.752,0.04,6.233-0.247,9.854-3.809c0.094-0.091,0.186-0.184,0.276-0.278
		c1.12,0.435,2.236,0.888,3.317,1.326l0.082,0.032c2.289,0.93,4.458,1.812,6.159,2.312v16.514h1.865V73.261
		c2.322,0.28,8.042,0.61,11.341-2.315c1.574-1.396,2.372-3.313,2.372-5.701C85.262,62.917,84.469,61.002,82.908,59.554
		 M71.76,71.407c-0.067-0.01-0.137-0.019-0.211-0.03V58.405c2.254-0.088,7.408,0.029,10.091,2.516
		c1.184,1.097,1.756,2.512,1.756,4.323c0,1.858-0.57,3.265-1.741,4.305C78.839,72.044,73.369,71.601,71.76,71.407 M45.633,67.649
		c0.736-0.72,2.306-1.148,4.203-1.148c0.093,0,0.186,0,0.28,0.003c1.967,0.042,4.539,0.662,8.079,1.947
		c-3.037,2.738-6.756,2.979-8.248,2.947c-1.673,0-4.796-0.896-4.796-2.608C45.151,68.342,45.308,67.968,45.633,67.649"/>
</g>
</svg>
