<?xml version="1.0" encoding="utf-8"?>
<!-- Generator: Adobe Illustrator 15.0.0, SVG Export Plug-In . SVG Version: 6.00 Build 0)  -->
<!DOCTYPE svg PUBLIC "-//W3C//DTD SVG 1.1//EN" "http://www.w3.org/Graphics/SVG/1.1/DTD/svg11.dtd">
<svg version="1.1" id="Warstwa_1" xmlns="http://www.w3.org/2000/svg" xmlns:xlink="http://www.w3.org/1999/xlink" x="0px" y="0px"
	 width="21px" height="21px" viewBox="0 0 21 21" enable-background="new 0 0 21 21" xml:space="preserve">
<path fill="#ffffff" d="M20.46,15.998c-0.057-0.17-0.417-0.422-1.08-0.754c-0.18-0.104-0.436-0.246-0.767-0.426
	c-0.332-0.18-0.633-0.346-0.902-0.498c-0.271-0.15-0.523-0.297-0.76-0.439c-0.039-0.029-0.156-0.111-0.355-0.248
	s-0.367-0.24-0.505-0.307s-0.272-0.1-0.405-0.1c-0.189,0-0.426,0.137-0.71,0.406s-0.544,0.563-0.781,0.881
	c-0.237,0.316-0.487,0.611-0.753,0.881s-0.482,0.404-0.654,0.404c-0.084,0-0.191-0.023-0.319-0.07s-0.225-0.088-0.291-0.121
	s-0.18-0.1-0.341-0.199c-0.162-0.1-0.252-0.154-0.27-0.164c-1.299-0.719-2.411-1.543-3.34-2.471c-0.928-0.93-1.752-2.042-2.472-3.34
	C5.745,9.415,5.69,9.325,5.591,9.164S5.425,8.889,5.392,8.823S5.318,8.659,5.271,8.531C5.224,8.404,5.2,8.297,5.2,8.212
	c0-0.17,0.135-0.388,0.405-0.654c0.27-0.265,0.563-0.517,0.881-0.753c0.317-0.237,0.611-0.498,0.881-0.781
	c0.27-0.284,0.405-0.521,0.405-0.711c0-0.132-0.033-0.267-0.099-0.404C7.606,4.771,7.504,4.603,7.367,4.404
	c-0.138-0.199-0.22-0.317-0.249-0.355c-0.142-0.236-0.289-0.49-0.44-0.76c-0.151-0.27-0.317-0.57-0.497-0.902
	C6,2.055,5.859,1.799,5.754,1.619C5.423,0.957,5.172,0.596,5.001,0.54C4.935,0.511,4.835,0.497,4.703,0.497
	c-0.256,0-0.59,0.048-1.002,0.142C3.289,0.734,2.965,0.833,2.728,0.937C2.254,1.136,1.752,1.714,1.222,2.67
	c-0.483,0.89-0.725,1.771-0.725,2.643c0,0.256,0.017,0.505,0.05,0.747C0.58,6.301,0.639,6.573,0.725,6.876
	C0.81,7.179,0.878,7.404,0.931,7.551C0.982,7.698,1.08,7.96,1.222,8.34c0.142,0.378,0.228,0.611,0.256,0.696
	c0.332,0.929,0.725,1.757,1.179,2.488c0.748,1.211,1.769,2.465,3.062,3.758c1.293,1.293,2.545,2.314,3.758,3.063
	c0.729,0.453,1.559,0.846,2.486,1.178c0.086,0.029,0.318,0.113,0.697,0.258c0.378,0.141,0.641,0.238,0.788,0.289
	c0.146,0.053,0.372,0.121,0.675,0.207s0.576,0.145,0.816,0.178c0.242,0.033,0.49,0.051,0.746,0.051c0.872,0,1.753-0.242,2.644-0.725
	c0.956-0.531,1.534-1.033,1.733-1.508c0.104-0.236,0.203-0.561,0.298-0.973s0.142-0.746,0.142-1.002
	C20.503,16.164,20.488,16.064,20.46,15.998z"/>
</svg>
