<?xml version="1.0" encoding="utf-8"?>
<!-- Generator: Adobe Illustrator 15.0.0, SVG Export Plug-In . SVG Version: 6.00 Build 0)  -->
<!DOCTYPE svg PUBLIC "-//W3C//DTD SVG 1.1//EN" "http://www.w3.org/Graphics/SVG/1.1/DTD/svg11.dtd">
<svg version="1.1" id="Warstwa_1" xmlns="http://www.w3.org/2000/svg" xmlns:xlink="http://www.w3.org/1999/xlink" x="0px" y="0px"
	 width="26px" height="26px" viewBox="0 0 26 26" enable-background="new 0 0 26 26" xml:space="preserve">
<g>
	<path fill="#ffffff" d="M12.958,14.517c3.849,0,6.972-3.12,6.972-6.966s-3.123-6.944-6.972-6.944c-3.85,0-6.972,3.119-6.972,6.944
		S9.108,14.517,12.958,14.517z M12.958,2.423c2.824,0,5.132,2.308,5.132,5.128s-2.309,5.128-5.132,5.128
		c-2.823,0-5.133-2.308-5.133-5.128S10.134,2.423,12.958,2.423z M17.277,15.735H8.723c-4.813,0-8.747,3.909-8.747,8.738
		c0,0.513,0.406,0.919,0.92,0.919h24.209c0.514,0,0.918-0.406,0.918-0.919C26.023,19.666,22.111,15.735,17.277,15.735z
		 M1.879,23.555c0.449-3.354,3.336-5.982,6.844-5.982h8.554c3.508,0,6.395,2.607,6.844,5.982H1.879z"/>
</g>
</svg>
